<svg xmlns="http://www.w3.org/2000/svg">

   <symbol id="night" viewBox="0 0 30 30">
        <path d="M25.61 10.61V4.39h-6.22L15 0l-4.39 4.39H4.39v6.22L0 15l4.39 4.39v6.22h6.22L15 30l4.39-4.39h6.22v-6.22L30 15l-4.39-4.39ZM15 22.958a7.924 7.924 0 0 1-3.316-.73c2.732-1.26 4.642-4.018 4.642-7.228s-1.91-5.968-4.642-7.228A7.924 7.924 0 0 1 15 7.042c4.39 0 7.958 3.568 7.958 7.958 0 4.39-3.568 7.958-7.958 7.958Z"/>
    </symbol>

    <symbol id="logo" viewBox="0 0 98 19">
        <path  d="M.402 5.236a2.781 2.781 0 0 1-.275-.641A2.849 2.849 0 0 1 0 3.74c0-.556.12-.954.36-1.197.254-.242.578-.363.973-.363h9.225c.098.157.19.37.275.641.084.27.127.556.127.855 0 .556-.127.955-.381 1.197-.24.242-.557.363-.952.363H7.278v9.874a5.825 5.825 0 0 1-.74.129 7.45 7.45 0 0 1-.974.064 3.98 3.98 0 0 1-.867-.086 1.407 1.407 0 0 1-.614-.256 1.154 1.154 0 0 1-.38-.535c-.085-.228-.127-.527-.127-.897V5.236H.402ZM15.226 15.174a4.883 4.883 0 0 1-.677.129 6.522 6.522 0 0 1-.931.064c-.31 0-.593-.022-.847-.064a1.408 1.408 0 0 1-.613-.257c-.17-.128-.303-.3-.402-.513-.085-.228-.127-.52-.127-.876V7.245c0-.327.056-.605.17-.833a2.07 2.07 0 0 1 .528-.641c.226-.186.5-.35.825-.492a8.073 8.073 0 0 1 2.264-.663 7.14 7.14 0 0 1 1.227-.106c.677 0 1.213.135 1.608.406.395.256.593.684.593 1.282 0 .2-.029.399-.085.598a2.784 2.784 0 0 1-.212.513 9.948 9.948 0 0 0-1.82.171c-.295.057-.577.121-.845.193a3.238 3.238 0 0 0-.656.213v7.288ZM20.243 1.924c0-.542.176-.998.529-1.368.367-.37.846-.556 1.439-.556.592 0 1.065.185 1.417.556.367.37.55.826.55 1.368 0 .54-.183.997-.55 1.367-.352.37-.825.556-1.417.556-.593 0-1.072-.185-1.44-.556-.352-.37-.528-.826-.528-1.367Zm3.766 13.25c-.155.029-.388.065-.698.107-.296.057-.6.086-.91.086-.31 0-.592-.022-.846-.064a1.408 1.408 0 0 1-.614-.257c-.17-.128-.303-.3-.402-.513-.085-.228-.127-.52-.127-.876V4.958c.155-.028.381-.064.677-.106.31-.057.62-.086.931-.086.31 0 .585.021.825.064.254.043.466.128.635.257.17.128.296.306.38.534.1.214.149.499.149.855v8.698ZM31.017 4.488c.846 0 1.63.114 2.348.342.734.214 1.362.549 1.884 1.005.521.456.93 1.033 1.227 1.73.296.685.444 1.504.444 2.459 0 .912-.127 1.71-.38 2.393a4.794 4.794 0 0 1-1.08 1.732 4.447 4.447 0 0 1-1.693 1.025c-.648.228-1.375.342-2.179.342-.606 0-1.17-.092-1.692-.277v3.547a4.87 4.87 0 0 1-.677.128 5.26 5.26 0 0 1-.953.086c-.31 0-.592-.021-.846-.064a1.408 1.408 0 0 1-.613-.257 1.153 1.153 0 0 1-.381-.534c-.085-.214-.127-.499-.127-.855V7.032c0-.385.077-.699.233-.94.169-.243.395-.464.677-.663.437-.285.98-.513 1.629-.684.649-.171 1.375-.257 2.179-.257Zm.042 8.164c1.453 0 2.18-.876 2.18-2.628 0-.912-.184-1.589-.55-2.03-.353-.442-.868-.663-1.545-.663-.268 0-.508.035-.72.107a2.472 2.472 0 0 0-.55.213v4.702c.17.086.353.157.55.214.198.057.41.085.635.085ZM50.418 15.11a5.827 5.827 0 0 1-.74.129 7.451 7.451 0 0 1-.974.064 3.98 3.98 0 0 1-.867-.086 1.406 1.406 0 0 1-.614-.256 1.154 1.154 0 0 1-.38-.535c-.085-.228-.128-.527-.128-.897v-3.334h-4.062v4.915a5.827 5.827 0 0 1-.74.129 7.452 7.452 0 0 1-.974.064 3.98 3.98 0 0 1-.867-.086 1.406 1.406 0 0 1-.614-.256 1.153 1.153 0 0 1-.38-.535c-.085-.228-.128-.527-.128-.897V2.244c.155-.028.402-.064.74-.107.34-.057.664-.085.974-.085.325 0 .607.028.846.085.254.043.466.128.635.257.17.128.296.306.381.534.085.228.127.527.127.898v3.42h4.062V2.243c.155-.028.402-.064.74-.107.34-.057.664-.085.974-.085.325 0 .607.028.846.085.254.043.466.128.635.257.17.128.296.306.381.534.085.228.127.527.127.898V15.11ZM63.533 10.002c0 .884-.134 1.674-.402 2.373a4.74 4.74 0 0 1-1.142 1.73c-.48.47-1.058.827-1.735 1.07-.677.242-1.432.363-2.264.363-.833 0-1.587-.129-2.264-.385a5.168 5.168 0 0 1-1.756-1.09 5.101 5.101 0 0 1-1.122-1.753c-.268-.684-.402-1.453-.402-2.308 0-.84.134-1.603.402-2.287a4.88 4.88 0 0 1 1.122-1.73 5.006 5.006 0 0 1 1.756-1.112c.677-.257 1.431-.385 2.264-.385.832 0 1.587.136 2.264.406a4.796 4.796 0 0 1 1.735 1.112 4.74 4.74 0 0 1 1.142 1.73c.268.685.402 1.44.402 2.266Zm-7.405 0c0 .87.162 1.54.486 2.01.339.455.805.683 1.397.683s1.044-.235 1.354-.705c.324-.47.487-1.133.487-1.988s-.163-1.51-.487-1.966c-.324-.47-.783-.705-1.375-.705-.593 0-1.051.235-1.376.705-.324.456-.486 1.111-.486 1.966ZM65.288 4.958a4.86 4.86 0 0 1 .656-.128c.31-.043.627-.064.952-.064.31 0 .585.021.825.064.254.043.465.128.635.257.169.128.296.306.38.534.1.214.149.499.149.855v4.595c0 .584.14 1.004.423 1.26.282.243.691.364 1.227.364a2.909 2.909 0 0 0 1.27-.256v-7.48a4.86 4.86 0 0 1 .655-.129 6.97 6.97 0 0 1 .953-.064c.31 0 .585.021.825.064.254.043.465.128.634.257.17.128.297.306.381.534.099.214.148.499.148.855v6.497c0 .712-.296 1.247-.888 1.603-.494.313-1.086.548-1.778.705a9.061 9.061 0 0 1-2.221.257 8.284 8.284 0 0 1-2.116-.257 4.688 4.688 0 0 1-1.65-.79 3.547 3.547 0 0 1-1.08-1.368c-.253-.57-.38-1.254-.38-2.052V4.958ZM86.277 12.097c0 1.083-.402 1.93-1.206 2.543-.804.613-1.989.92-3.554.92a9.954 9.954 0 0 1-1.65-.13 5.12 5.12 0 0 1-1.313-.384 2.568 2.568 0 0 1-.846-.684 1.587 1.587 0 0 1-.296-.962c0-.341.07-.627.212-.854.14-.243.31-.442.507-.599.41.228.875.435 1.397.62.536.17 1.15.256 1.84.256.438 0 .77-.064.995-.192.24-.128.36-.3.36-.513 0-.2-.085-.356-.254-.47-.17-.114-.452-.207-.847-.278l-.634-.128c-1.228-.242-2.144-.62-2.75-1.133-.593-.527-.89-1.275-.89-2.244 0-.527.113-1.004.339-1.432.226-.427.543-.784.952-1.069.41-.285.896-.505 1.46-.662a7.267 7.267 0 0 1 1.904-.235c.522 0 1.009.043 1.46.128.466.071.868.185 1.206.342.339.157.607.363.804.62.198.242.296.534.296.876 0 .328-.063.613-.19.855a1.8 1.8 0 0 1-.444.577 2.274 2.274 0 0 0-.508-.214 5.066 5.066 0 0 0-.74-.213 7.695 7.695 0 0 0-.826-.171 4.727 4.727 0 0 0-.74-.065c-.466 0-.826.057-1.08.171-.253.1-.38.264-.38.492 0 .157.07.285.211.385.141.1.41.192.804.278l.656.15c1.354.313 2.313.747 2.878 1.303.578.541.867 1.247.867 2.116ZM93.557 15.538a7.663 7.663 0 0 1-2.328-.342 5.5 5.5 0 0 1-1.861-1.069c-.522-.47-.938-1.061-1.249-1.774-.296-.712-.444-1.546-.444-2.5 0-.94.148-1.746.444-2.415.31-.684.713-1.24 1.206-1.667a4.56 4.56 0 0 1 1.693-.962 6.061 6.061 0 0 1 1.946-.32c.748 0 1.425.113 2.032.341.62.228 1.15.542 1.586.94.452.4.797.877 1.037 1.432A4.32 4.32 0 0 1 98 9.02c0 .485-.134.855-.402 1.111-.268.257-.642.42-1.121.492l-5.226.79c.155.471.472.827.952 1.07.48.227 1.03.341 1.65.341.578 0 1.121-.07 1.63-.213.521-.157.944-.335 1.269-.535.225.143.416.342.57.599.156.256.234.527.234.812 0 .641-.296 1.118-.889 1.432-.451.242-.96.406-1.523.491-.565.086-1.094.129-1.587.129Zm-.593-8.4c-.338 0-.634.057-.888.171-.24.114-.438.264-.593.45-.155.17-.275.37-.36.598-.07.213-.112.434-.126.662l3.618-.598c-.043-.285-.198-.57-.466-.855-.268-.285-.663-.428-1.185-.428Z"/>
    </symbol>

    <symbol id="acc" viewBox="0 0 40 40">
        <path  d="M20 0C8.96 0 0 8.96 0 20s8.96 20 20 20 20-8.96 20-20S31.04 0 20 0Zm0 6c3.32 0 6 2.68 6 6s-2.68 6-6 6-6-2.68-6-6 2.68-6 6-6Zm0 28.4c-5 0-9.42-2.56-12-6.44.06-3.98 8-6.16 12-6.16 3.98 0 11.94 2.18 12 6.16-2.58 3.88-7 6.44-12 6.44Z"/>
    </symbol>

    <symbol id="app" viewBox="0 0 120 40">
        <path fill="#A6A6A6" d="M110.135 0H9.535c-.367 0-.73 0-1.095.002-.306.002-.61.008-.919.013C6.85.023 6.18.082 5.517.192a6.665 6.665 0 0 0-1.9.627A6.438 6.438 0 0 0 .193 5.522a12.993 12.993 0 0 0-.179 2.002c-.01.306-.01.614-.015.92V31.56c.005.31.006.61.015.921.008.671.068 1.34.18 2.002.11.663.32 1.306.624 1.905.303.598.701 1.143 1.179 1.614.473.477 1.019.875 1.618 1.179a6.7 6.7 0 0 0 1.901.63c.663.11 1.333.168 2.004.177.31.007.613.011.919.011.366.002.728.002 1.095.002h100.6c.359 0 .724 0 1.084-.002.304 0 .617-.004.922-.01.67-.01 1.338-.068 2-.178a6.808 6.808 0 0 0 1.908-.63A6.293 6.293 0 0 0 117.666 38a6.405 6.405 0 0 0 1.182-1.614c.302-.6.51-1.242.619-1.905.111-.661.173-1.33.185-2.002.004-.31.004-.61.004-.921.008-.364.008-.725.008-1.094V9.536c0-.366 0-.73-.008-1.092 0-.306 0-.614-.004-.92a13.57 13.57 0 0 0-.185-2.002 6.648 6.648 0 0 0-.619-1.904 6.469 6.469 0 0 0-2.799-2.8 6.77 6.77 0 0 0-1.908-.627c-.661-.11-1.33-.169-2-.176-.305-.005-.618-.011-.922-.013-.36-.002-.725-.002-1.084-.002Z"/><path fill="#000" d="M8.445 39.125c-.305 0-.602-.004-.904-.01a12.669 12.669 0 0 1-1.87-.164 5.88 5.88 0 0 1-1.656-.548 5.403 5.403 0 0 1-1.397-1.016 5.32 5.32 0 0 1-1.02-1.397 5.722 5.722 0 0 1-.544-1.657 12.41 12.41 0 0 1-.166-1.875c-.007-.21-.015-.913-.015-.913v-23.1s.009-.692.015-.895a12.37 12.37 0 0 1 .165-1.872 5.755 5.755 0 0 1 .544-1.662c.26-.518.603-.99 1.015-1.398A5.565 5.565 0 0 1 5.668 1.05C6.288.95 6.915.895 7.543.887l.902-.012h102.769l.913.013a12.37 12.37 0 0 1 1.858.162 5.933 5.933 0 0 1 1.671.548 5.589 5.589 0 0 1 2.415 2.42c.261.52.441 1.076.536 1.65.103.623.161 1.254.173 1.886.003.284.003.588.003.89.008.375.008.732.008 1.092v20.929c0 .363 0 .718-.008 1.075 0 .325 0 .623-.004.93-.011.62-.068 1.24-.171 1.853a5.715 5.715 0 0 1-.54 1.67c-.263.513-.606.98-1.015 1.386-.409.414-.881.759-1.4 1.022a5.852 5.852 0 0 1-1.668.55c-.618.101-1.242.156-1.869.163-.293.007-.599.011-.897.011l-1.084.002-101.69-.002Z"/><path fill="#fff" d="M24.769 20.3a4.948 4.948 0 0 1 2.357-4.151 5.066 5.066 0 0 0-3.992-2.158c-1.679-.176-3.307 1.005-4.163 1.005-.872 0-2.19-.988-3.608-.958a5.315 5.315 0 0 0-4.473 2.727c-1.934 3.349-.491 8.27 1.361 10.977.927 1.325 2.01 2.805 3.428 2.753 1.387-.058 1.905-.885 3.58-.885 1.658 0 2.144.885 3.59.852 1.489-.025 2.426-1.332 3.32-2.67a10.957 10.957 0 0 0 1.52-3.092 4.782 4.782 0 0 1-2.92-4.4ZM22.038 12.211a4.873 4.873 0 0 0 1.114-3.49 4.957 4.957 0 0 0-3.207 1.66 4.638 4.638 0 0 0-1.144 3.36 4.099 4.099 0 0 0 3.237-1.53ZM42.302 27.14H37.57l-1.137 3.356h-2.005l4.484-12.418h2.083l4.483 12.418h-2.039l-1.136-3.356Zm-4.243-1.55h3.752l-1.85-5.446h-.051l-1.85 5.447ZM55.16 25.97c0 2.813-1.506 4.62-3.779 4.62a3.07 3.07 0 0 1-2.848-1.583h-.043v4.484H46.63V21.442h1.8v1.506h.033a3.212 3.212 0 0 1 2.883-1.6c2.298 0 3.813 1.816 3.813 4.622Zm-1.91 0c0-1.833-.948-3.038-2.393-3.038-1.42 0-2.375 1.23-2.375 3.038 0 1.824.955 3.046 2.375 3.046 1.445 0 2.392-1.197 2.392-3.046ZM65.124 25.97c0 2.813-1.505 4.62-3.778 4.62a3.07 3.07 0 0 1-2.848-1.583h-.043v4.484h-1.859V21.442h1.799v1.506h.034a3.212 3.212 0 0 1 2.883-1.6c2.298 0 3.813 1.816 3.813 4.622Zm-1.91 0c0-1.833-.947-3.038-2.392-3.038-1.42 0-2.375 1.23-2.375 3.038 0 1.824.955 3.046 2.375 3.046 1.445 0 2.392-1.197 2.392-3.046ZM71.71 27.036c.138 1.232 1.335 2.04 2.97 2.04 1.566 0 2.693-.808 2.693-1.919 0-.964-.68-1.54-2.29-1.936l-1.609-.388c-2.28-.55-3.339-1.617-3.339-3.348 0-2.142 1.867-3.614 4.519-3.614 2.624 0 4.423 1.472 4.483 3.614h-1.876c-.112-1.239-1.136-1.987-2.634-1.987-1.497 0-2.521.757-2.521 1.858 0 .878.654 1.395 2.255 1.79l1.368.336c2.548.603 3.606 1.626 3.606 3.443 0 2.323-1.85 3.778-4.793 3.778-2.754 0-4.614-1.42-4.734-3.667h1.902ZM83.346 19.3v2.142h1.722v1.472h-1.722v4.991c0 .776.345 1.137 1.102 1.137.204-.004.408-.018.611-.043v1.463c-.34.064-.686.092-1.032.086-1.833 0-2.548-.689-2.548-2.444v-5.19h-1.316v-1.472h1.316V19.3h1.867ZM86.065 25.97c0-2.849 1.678-4.639 4.294-4.639 2.625 0 4.295 1.79 4.295 4.639 0 2.856-1.661 4.639-4.295 4.639-2.633 0-4.294-1.783-4.294-4.64Zm6.695 0c0-1.954-.895-3.108-2.401-3.108-1.506 0-2.4 1.163-2.4 3.108 0 1.962.894 3.106 2.4 3.106 1.506 0 2.401-1.144 2.401-3.106ZM96.186 21.442h1.772v1.541h.043a2.16 2.16 0 0 1 2.178-1.635c.214-.001.428.022.637.07v1.737a2.594 2.594 0 0 0-.835-.112 1.872 1.872 0 0 0-1.937 2.083v5.37h-1.858v-9.053ZM109.384 27.837c-.25 1.643-1.85 2.771-3.898 2.771-2.634 0-4.269-1.764-4.269-4.595 0-2.84 1.644-4.682 4.191-4.682 2.505 0 4.08 1.72 4.08 4.466v.637h-6.395v.112a2.353 2.353 0 0 0 .639 1.832 2.363 2.363 0 0 0 1.797.732 2.046 2.046 0 0 0 2.091-1.273h1.764Zm-6.282-2.702h4.526a2.166 2.166 0 0 0-.608-1.634 2.168 2.168 0 0 0-1.612-.664 2.293 2.293 0 0 0-2.306 2.298ZM37.826 8.731a2.64 2.64 0 0 1 2.808 2.965c0 1.906-1.03 3.002-2.808 3.002h-2.155V8.73h2.155Zm-1.228 5.123h1.125a1.876 1.876 0 0 0 1.968-2.146 1.882 1.882 0 0 0-1.968-2.134h-1.125v4.28ZM41.68 12.444a2.134 2.134 0 1 1 4.248 0 2.132 2.132 0 1 1-4.247 0Zm3.334 0c0-.976-.439-1.546-1.208-1.546-.773 0-1.207.57-1.207 1.546 0 .984.434 1.55 1.207 1.55.77 0 1.208-.57 1.208-1.55ZM51.573 14.698h-.922l-.93-3.316h-.07l-.927 3.316h-.913l-1.242-4.503h.902l.806 3.436h.067l.925-3.436h.853l.926 3.436h.07l.803-3.436h.889l-1.237 4.503ZM53.853 10.195h.856v.715h.066a1.349 1.349 0 0 1 1.344-.802 1.466 1.466 0 0 1 1.559 1.675v2.915h-.889v-2.692c0-.724-.314-1.084-.972-1.084a1.034 1.034 0 0 0-1.075 1.142v2.634h-.889v-4.503ZM59.094 8.437h.888v6.26h-.888v-6.26ZM61.218 12.444a2.133 2.133 0 1 1 4.248 0 2.135 2.135 0 1 1-4.248 0Zm3.333 0c0-.976-.439-1.546-1.208-1.546-.772 0-1.207.57-1.207 1.546 0 .984.435 1.55 1.207 1.55.77 0 1.208-.57 1.208-1.55ZM66.4 13.424c0-.81.604-1.277 1.676-1.344l1.22-.07v-.389c0-.476-.315-.744-.922-.744-.497 0-.84.182-.939.5h-.86c.09-.773.818-1.27 1.84-1.27 1.128 0 1.765.563 1.765 1.514v3.077h-.855v-.633h-.07a1.515 1.515 0 0 1-1.353.707 1.361 1.361 0 0 1-1.501-1.348Zm2.895-.384v-.377l-1.1.07c-.62.042-.9.253-.9.65 0 .405.351.641.834.641a1.064 1.064 0 0 0 1.166-.984ZM71.348 12.444c0-1.422.732-2.324 1.87-2.324a1.483 1.483 0 0 1 1.38.79h.067V8.437h.888v6.26h-.851v-.71h-.07a1.564 1.564 0 0 1-1.415.785c-1.145 0-1.869-.901-1.869-2.328Zm.918 0c0 .956.45 1.53 1.203 1.53.75 0 1.212-.583 1.212-1.526 0-.938-.468-1.53-1.212-1.53-.748 0-1.203.58-1.203 1.527ZM79.23 12.444a2.133 2.133 0 1 1 4.247 0 2.132 2.132 0 1 1-4.247 0Zm3.333 0c0-.976-.439-1.546-1.208-1.546-.773 0-1.207.57-1.207 1.546 0 .984.434 1.55 1.207 1.55.77 0 1.208-.57 1.208-1.55ZM84.67 10.195h.855v.715h.066a1.348 1.348 0 0 1 1.344-.802 1.466 1.466 0 0 1 1.559 1.675v2.915h-.889v-2.692c0-.724-.314-1.084-.972-1.084a1.034 1.034 0 0 0-1.075 1.142v2.634h-.889v-4.503ZM93.515 9.074v1.142h.976v.748h-.976v2.315c0 .472.195.679.637.679.113 0 .226-.008.339-.02v.74c-.16.028-.322.043-.484.045-.988 0-1.382-.348-1.382-1.216v-2.543h-.714v-.749h.715V9.074h.89ZM95.705 8.437h.88v2.482h.07a1.386 1.386 0 0 1 1.374-.807 1.485 1.485 0 0 1 1.55 1.679v2.907h-.889V12.01c0-.72-.335-1.084-.963-1.084a1.053 1.053 0 0 0-1.134 1.142v2.63h-.888v-6.26ZM104.761 13.482a1.823 1.823 0 0 1-1.951 1.303 2.05 2.05 0 0 1-2.01-1.447 2.05 2.05 0 0 1-.07-.877 2.093 2.093 0 0 1 .071-.88 2.085 2.085 0 0 1 2.005-1.473c1.253 0 2.009.856 2.009 2.27v.31h-3.18v.05a1.191 1.191 0 0 0 1.2 1.29 1.076 1.076 0 0 0 1.071-.546h.855Zm-3.126-1.451h2.275a1.09 1.09 0 0 0-1.109-1.167 1.151 1.151 0 0 0-1.166 1.167Z"/>
    </symbol>

    <symbol id="support" viewBox="0 0 100 100">
        <path fill="#3077C6" d="M79.167 58.333V75h-8.334V58.333h8.334Zm-50 0V75H25a4.179 4.179 0 0 1-4.167-4.167v-12.5h8.334ZM50 4.167c-20.708 0-37.5 16.791-37.5 37.5v29.166c0 6.917 5.583 12.5 12.5 12.5h12.5V50H20.833v-8.333C20.833 25.542 33.875 12.5 50 12.5s29.167 13.042 29.167 29.167V50H62.5v33.333h16.667V87.5H50v8.333h25c6.917 0 12.5-5.583 12.5-12.5V41.667c0-20.709-16.792-37.5-37.5-37.5Z"/>
    </symbol>

    <symbol id="communicate" viewBox="0 0 100 100">
        <path fill="#3077C6" d="M62.5 16.667v29.166H21.542l-4.875 4.875V16.667H62.5Zm4.167-8.334H12.5A4.179 4.179 0 0 0 8.334 12.5v58.333L25 54.167h41.667A4.179 4.179 0 0 0 70.833 50V12.5a4.179 4.179 0 0 0-4.166-4.167ZM87.5 25h-8.333v37.5H25v8.333A4.179 4.179 0 0 0 29.167 75H75l16.667 16.667v-62.5A4.179 4.179 0 0 0 87.5 25Z"/>
    </symbol>

    <symbol id="online" viewBox="0 0 100 100">
        <path fill="#3077C6" d="M16.667 25h75v-8.333h-75c-4.584 0-8.334 3.75-8.334 8.333v45.833H0v12.5h58.333v-12.5H16.667V25Zm79.166 8.333h-25a4.179 4.179 0 0 0-4.166 4.167v41.667a4.179 4.179 0 0 0 4.166 4.166h25A4.179 4.179 0 0 0 100 79.167V37.5a4.179 4.179 0 0 0-4.167-4.167Zm-4.166 37.5H75V41.667h16.667v29.166Z"/>
    </symbol>

    <symbol id="reviews" viewBox="0 0 100 100">
        <path fill="#3077C6" d="M87.5 33.333H61.208l3.959-19.041.124-1.334a6.272 6.272 0 0 0-1.833-4.416l-4.416-4.375-27.417 27.458a8.147 8.147 0 0 0-2.459 5.875v41.667c0 4.583 3.75 8.333 8.334 8.333H75a8.277 8.277 0 0 0 7.666-5.083L95.25 53.042A8.232 8.232 0 0 0 95.833 50v-8.333c0-4.584-3.75-8.334-8.333-8.334ZM87.5 50 75 79.167H37.5V37.5l18.083-18.083-4.625 22.25H87.5V50ZM4.166 37.5h16.667v50H4.167v-50Z"/>
    </symbol>

</svg>

